<svg width="1200" height="630" viewBox="0 0 1200 630" fill="none" xmlns="http://www.w3.org/2000/svg">
  <defs>
    <linearGradient id="bg" x1="0" y1="0" x2="1200" y2="630" gradientUnits="userSpaceOnUse">
      <stop offset="0%" stop-color="#081526" />
      <stop offset="55%" stop-color="#0F2746" />
      <stop offset="100%" stop-color="#173A67" />
    </linearGradient>
    <radialGradient id="glow" cx="0" cy="0" r="1" gradientUnits="userSpaceOnUse" gradientTransform="translate(980 90) rotate(130) scale(620 760)">
      <stop offset="0%" stop-color="#2B5A96" stop-opacity="0.28" />
      <stop offset="100%" stop-color="#2B5A96" stop-opacity="0" />
    </radialGradient>
    <linearGradient id="pillStroke" x1="79" y1="70" x2="612" y2="105" gradientUnits="userSpaceOnUse">
      <stop offset="0%" stop-color="#BED6F6" />
      <stop offset="100%" stop-color="#7EB0E8" />
    </linearGradient>
  </defs>

  <rect width="1200" height="630" fill="url(#bg)" />
  <rect width="1200" height="630" fill="url(#glow)" />

  <g opacity="0.22">
    <path d="M0 74H1200" stroke="#4A6F9C" stroke-width="1" />
    <path d="M0 148H1200" stroke="#4A6F9C" stroke-width="1" />
    <path d="M0 222H1200" stroke="#4A6F9C" stroke-width="1" />
    <path d="M0 296H1200" stroke="#4A6F9C" stroke-width="1" />
    <path d="M0 370H1200" stroke="#4A6F9C" stroke-width="1" />
    <path d="M0 444H1200" stroke="#4A6F9C" stroke-width="1" />
    <path d="M0 518H1200" stroke="#4A6F9C" stroke-width="1" />
    <path d="M74 0V630" stroke="#4A6F9C" stroke-width="1" />
    <path d="M148 0V630" stroke="#4A6F9C" stroke-width="1" />
    <path d="M222 0V630" stroke="#4A6F9C" stroke-width="1" />
    <path d="M296 0V630" stroke="#4A6F9C" stroke-width="1" />
    <path d="M370 0V630" stroke="#4A6F9C" stroke-width="1" />
    <path d="M444 0V630" stroke="#4A6F9C" stroke-width="1" />
    <path d="M518 0V630" stroke="#4A6F9C" stroke-width="1" />
    <path d="M592 0V630" stroke="#4A6F9C" stroke-width="1" />
    <path d="M666 0V630" stroke="#4A6F9C" stroke-width="1" />
    <path d="M740 0V630" stroke="#4A6F9C" stroke-width="1" />
    <path d="M814 0V630" stroke="#4A6F9C" stroke-width="1" />
    <path d="M888 0V630" stroke="#4A6F9C" stroke-width="1" />
    <path d="M962 0V630" stroke="#4A6F9C" stroke-width="1" />
    <path d="M1036 0V630" stroke="#4A6F9C" stroke-width="1" />
    <path d="M1110 0V630" stroke="#4A6F9C" stroke-width="1" />
  </g>

  <rect x="79" y="70" width="531" height="78" rx="38" stroke="url(#pillStroke)" stroke-width="4"/>
  <text x="119" y="119" fill="#FFFFFF" font-size="34" font-family="Arial, Helvetica, sans-serif" font-weight="700" letter-spacing="0.34em">CIVIC BLUEPRINT</text>

  <text x="79" y="235" fill="#FAF7F2" font-size="70" font-family="Georgia, 'Times New Roman', serif" font-weight="700">
    What if we're not
  </text>
  <text x="79" y="315" fill="#FAF7F2" font-size="70" font-family="Georgia, 'Times New Roman', serif" font-weight="700">
    as divided as
  </text>
  <text x="79" y="395" fill="#FAF7F2" font-size="70" font-family="Georgia, 'Times New Roman', serif" font-weight="700">
    we think?
  </text>

  <text x="79" y="549" fill="#93B9EA" font-size="46" font-family="Arial, Helvetica, sans-serif" font-weight="500" letter-spacing="0.01em">
    See the evidence. Challenge it.
  </text>

  <text x="1122" y="585" text-anchor="end" fill="#BED6F6" font-size="24" font-family="Arial, Helvetica, sans-serif" font-weight="400" letter-spacing="0.01em">
    civicblueprint.org
  </text>
</svg>
